<svg width="615" height="138" viewBox="0 0 615 138" fill="none" xmlns="http://www.w3.org/2000/svg">
<path d="M11.8636 129V99.9091H21.2528C23.3172 99.9091 25.0407 100.307 26.4233 101.102C27.8153 101.888 28.8617 102.958 29.5625 104.312C30.2727 105.667 30.6278 107.191 30.6278 108.886C30.6278 110.581 30.2775 112.111 29.5767 113.474C28.8759 114.829 27.8343 115.903 26.4517 116.699C25.0691 117.485 23.3504 117.878 21.2955 117.878H13.9091V115.491H21.2244C22.7491 115.491 24.0133 115.207 25.017 114.639C26.0208 114.062 26.7689 113.276 27.2614 112.281C27.7633 111.287 28.0142 110.155 28.0142 108.886C28.0142 107.617 27.7633 106.486 27.2614 105.491C26.7689 104.497 26.0161 103.716 25.0028 103.148C23.9991 102.58 22.7254 102.295 21.1818 102.295H14.5199V129H11.8636ZM56.4636 129V99.9091H65.8528C67.9172 99.9091 69.6407 100.283 71.0233 101.031C72.4153 101.77 73.4617 102.797 74.1625 104.114C74.8727 105.42 75.2278 106.921 75.2278 108.616C75.2278 110.312 74.8727 111.808 74.1625 113.105C73.4617 114.402 72.4201 115.416 71.0375 116.145C69.6549 116.874 67.9409 117.239 65.8955 117.239H57.8983V114.81H65.8244C67.3396 114.81 68.5991 114.559 69.6028 114.057C70.6161 113.555 71.3689 112.84 71.8614 111.912C72.3633 110.984 72.6142 109.885 72.6142 108.616C72.6142 107.348 72.3633 106.24 71.8614 105.293C71.3595 104.336 70.6019 103.598 69.5886 103.077C68.5848 102.556 67.3159 102.295 65.7818 102.295H59.1199V129H56.4636ZM69.2903 115.875L76.4494 129H73.3812L66.2932 115.875H69.2903ZM103.954 99.9091V129H101.298V99.9091H103.954ZM131.331 99.9091L140.422 125.548H140.678L149.769 99.9091H152.553L141.97 129H139.13L128.547 99.9091H131.331ZM174.681 129H171.897L182.48 99.9091H185.32L195.903 129H193.119L183.999 103.361H183.801L174.681 129ZM176.684 117.849H191.116V120.236H176.684V117.849ZM215.329 102.295V99.9091H236.423V102.295H227.204V129H224.548V102.295H215.329ZM262.003 129V99.9091H278.878V102.295H264.659V113.247H277.983V115.634H264.659V126.614H279.162V129H262.003ZM358.987 109H356.316C356.117 108.006 355.758 107.087 355.237 106.244C354.725 105.392 354.081 104.649 353.305 104.014C352.528 103.38 351.648 102.887 350.663 102.537C349.678 102.187 348.613 102.011 347.467 102.011C345.63 102.011 343.954 102.49 342.438 103.446C340.933 104.402 339.725 105.809 338.816 107.665C337.917 109.511 337.467 111.775 337.467 114.455C337.467 117.153 337.917 119.426 338.816 121.273C339.725 123.119 340.933 124.521 342.438 125.477C343.954 126.424 345.63 126.898 347.467 126.898C348.613 126.898 349.678 126.723 350.663 126.372C351.648 126.022 352.528 125.534 353.305 124.909C354.081 124.275 354.725 123.531 355.237 122.679C355.758 121.827 356.117 120.903 356.316 119.909H358.987C358.75 121.244 358.305 122.49 357.652 123.645C357.008 124.791 356.184 125.795 355.18 126.656C354.186 127.518 353.04 128.19 351.742 128.673C350.445 129.156 349.02 129.398 347.467 129.398C345.024 129.398 342.855 128.787 340.961 127.565C339.067 126.334 337.581 124.601 336.501 122.366C335.431 120.132 334.896 117.494 334.896 114.455C334.896 111.415 335.431 108.777 336.501 106.543C337.581 104.308 339.067 102.58 340.961 101.358C342.855 100.127 345.024 99.5114 347.467 99.5114C349.02 99.5114 350.445 99.7528 351.742 100.236C353.04 100.709 354.186 101.382 355.18 102.253C356.184 103.115 357.008 104.118 357.652 105.264C358.305 106.41 358.75 107.655 358.987 109ZM384.869 129H382.085L392.667 99.9091H395.508L406.09 129H403.306L394.187 103.361H393.988L384.869 129ZM386.872 117.849H401.303V120.236H386.872V117.849ZM430.676 129V99.9091H440.065C442.13 99.9091 443.853 100.307 445.236 101.102C446.628 101.888 447.674 102.958 448.375 104.312C449.085 105.667 449.44 107.191 449.44 108.886C449.44 110.581 449.09 112.111 448.389 113.474C447.688 114.829 446.647 115.903 445.264 116.699C443.882 117.485 442.163 117.878 440.108 117.878H432.722V115.491H440.037C441.562 115.491 442.826 115.207 443.83 114.639C444.833 114.062 445.581 113.276 446.074 112.281C446.576 111.287 446.827 110.155 446.827 108.886C446.827 107.617 446.576 106.486 446.074 105.491C445.581 104.497 444.829 103.716 443.815 103.148C442.812 102.58 441.538 102.295 439.994 102.295H433.332V129H430.676ZM477.932 99.9091V129H475.276V99.9091H477.932ZM503.505 102.295V99.9091H524.599V102.295H515.38V129H512.724V102.295H503.505ZM546.823 129H544.039L554.622 99.9091H557.463L568.045 129H565.261L556.142 103.361H555.943L546.823 129ZM548.826 117.849H563.258V120.236H548.826V117.849ZM592.631 129V99.9091H595.287V126.614H609.151V129H592.631Z" fill="white"/>
<path d="M7.77841 18.1818H11.3523L32.0859 67.2699H32.4538L53.1875 18.1818H56.7614V72H53.608V25.9865H53.2926L33.8203 72H30.7195L11.2472 25.9865H10.9318V72H7.77841V18.1818ZM75.5964 18.1818V72H72.3116V18.1818H75.5964ZM88.6765 72V69.2933L119.449 21.2301H88.729V18.1818H123.364V20.8885L92.6183 68.9517H123.627V72H88.6765ZM134.407 72H130.939L150.358 18.1818H154.143L173.562 72H170.094L152.382 22.4126H152.119L134.407 72ZM139.322 51.7393H165.18V54.7876H139.322V51.7393ZM183.601 72V18.1818H200.182C203.581 18.1818 206.507 18.8475 208.959 20.179C211.412 21.5104 213.295 23.3587 214.609 25.7237C215.923 28.0713 216.58 30.8042 216.58 33.9226C216.58 37.0059 215.923 39.7214 214.609 42.0689C213.295 44.3989 211.412 46.2209 208.959 47.5348C206.524 48.8487 203.607 49.5057 200.209 49.5057H185.361V46.4311H200.13C202.898 46.4311 205.263 45.9143 207.225 44.8807C209.187 43.8471 210.694 42.4018 211.745 40.5447C212.796 38.6702 213.322 36.4628 213.322 33.9226C213.322 31.3648 212.796 29.1399 211.745 27.2479C210.694 25.3383 209.178 23.858 207.199 22.8068C205.237 21.7557 202.872 21.2301 200.104 21.2301H186.885V72H183.601ZM205.701 47.6136L218.945 72H215.161L201.996 47.6136H205.701ZM250.519 72V18.1818H267.1C270.517 18.1818 273.442 18.8826 275.877 20.2841C278.33 21.6856 280.213 23.6039 281.527 26.0391C282.841 28.4742 283.498 31.2509 283.498 34.3693C283.498 37.4526 282.841 40.2119 281.527 42.647C280.213 45.0821 278.33 47.0092 275.877 48.4283C273.442 49.8298 270.525 50.5305 267.127 50.5305H252.831V47.4822H267.048C269.816 47.4822 272.181 46.9216 274.143 45.8004C276.105 44.6617 277.612 43.1113 278.663 41.1491C279.714 39.1695 280.24 36.9096 280.24 34.3693C280.24 31.8116 279.714 29.5428 278.663 27.5632C277.612 25.5836 276.096 24.0331 274.117 22.9119C272.155 21.7907 269.789 21.2301 267.021 21.2301H253.803V72H250.519ZM288.55 72H285.081L304.501 18.1818H308.285L327.705 72H324.236L306.525 22.4126H306.262L288.55 72ZM293.464 51.7393H319.322V54.7876H293.464V51.7393ZM337.743 72V18.1818H354.325C357.724 18.1818 360.649 18.8475 363.102 20.179C365.555 21.5104 367.438 23.3587 368.752 25.7237C370.066 28.0713 370.723 30.8042 370.723 33.9226C370.723 37.0059 370.066 39.7214 368.752 42.0689C367.438 44.3989 365.555 46.2209 363.102 47.5348C360.667 48.8487 357.75 49.5057 354.351 49.5057H339.504V46.4311H354.272C357.04 46.4311 359.405 45.9143 361.368 44.8807C363.33 43.8471 364.836 42.4018 365.887 40.5447C366.939 38.6702 367.464 36.4628 367.464 33.9226C367.464 31.3648 366.939 29.1399 365.887 27.2479C364.836 25.3383 363.321 23.858 361.341 22.8068C359.379 21.7557 357.014 21.2301 354.246 21.2301H341.028V72H337.743ZM359.843 47.6136L373.088 72H369.304L356.138 47.6136H359.843ZM380.275 21.2301V18.1818H417.984V21.2301H400.772V72H397.487V21.2301H380.275ZM471.08 18.1818V72H467.874L433.554 24.147H433.239V72H429.954V18.1818H433.186L467.506 66.0874H467.821V18.1818H471.08ZM486.61 72V18.1818H516.568V21.2301H489.895V43.5405H514.965V46.5888H489.895V68.9517H517.199V72H486.61ZM530.187 72V18.1818H546.768C550.167 18.1818 553.093 18.8475 555.545 20.179C557.998 21.5104 559.881 23.3587 561.195 25.7237C562.509 28.0713 563.166 30.8042 563.166 33.9226C563.166 37.0059 562.509 39.7214 561.195 42.0689C559.881 44.3989 557.998 46.2209 555.545 47.5348C553.11 48.8487 550.193 49.5057 546.795 49.5057H531.947V46.4311H546.716C549.484 46.4311 551.849 45.9143 553.811 44.8807C555.773 43.8471 557.28 42.4018 558.331 40.5447C559.382 38.6702 559.907 36.4628 559.907 33.9226C559.907 31.3648 559.382 29.1399 558.331 27.2479C557.28 25.3383 555.764 23.858 553.785 22.8068C551.823 21.7557 549.457 21.2301 546.689 21.2301H533.471V72H530.187ZM552.287 47.6136L565.531 72H561.747L548.581 47.6136H552.287ZM605.303 31.6364C605.023 28.2902 603.657 25.5836 601.204 23.5163C598.769 21.4491 595.615 20.4155 591.744 20.4155C589.133 20.4155 586.812 20.8973 584.78 21.8608C582.748 22.8243 581.154 24.1383 579.997 25.8026C578.841 27.4669 578.263 29.3764 578.263 31.5312C578.263 32.9152 578.526 34.1678 579.051 35.2891C579.594 36.3928 580.356 37.3826 581.338 38.2585C582.319 39.1169 583.484 39.8703 584.833 40.5185C586.182 41.1667 587.671 41.736 589.3 42.2266L595.186 43.9609C597.201 44.5741 599.058 45.2836 600.757 46.0895C602.474 46.8954 603.963 47.8589 605.225 48.9801C606.503 50.0838 607.493 51.3802 608.194 52.8693C608.912 54.3584 609.271 56.0753 609.271 58.0199C609.271 60.858 608.536 63.3982 607.064 65.6406C605.61 67.883 603.534 69.6525 600.836 70.9489C598.156 72.2277 594.994 72.8672 591.35 72.8672C587.881 72.8672 584.859 72.2803 582.284 71.1065C579.726 69.9328 577.702 68.3035 576.213 66.2188C574.724 64.1165 573.883 61.6989 573.691 58.9659H577.054C577.229 61.1908 577.939 63.1179 579.183 64.7472C580.444 66.3589 582.117 67.6027 584.202 68.4787C586.287 69.3546 588.669 69.7926 591.35 69.7926C594.24 69.7926 596.789 69.3021 598.997 68.321C601.204 67.3224 602.93 65.9384 604.173 64.169C605.417 62.3996 606.039 60.3411 606.039 57.9936C606.039 56.1016 605.593 54.4811 604.699 53.1321C603.806 51.7831 602.483 50.6181 600.731 49.6371C598.997 48.656 596.842 47.7801 594.267 47.0092L587.986 45.1172C583.781 43.8383 580.567 42.0952 578.342 39.8878C576.134 37.6804 575.031 34.9299 575.031 31.6364C575.031 28.8684 575.767 26.4157 577.238 24.2784C578.71 22.1236 580.707 20.433 583.23 19.2067C585.77 17.9803 588.634 17.3672 591.823 17.3672C595.029 17.3672 597.858 17.9891 600.311 19.233C602.763 20.4593 604.708 22.1499 606.144 24.3047C607.581 26.442 608.378 28.8859 608.536 31.6364H605.303Z" fill="url(#paint0_linear_2543_271)"/>
<defs>
<linearGradient id="paint0_linear_2543_271" x1="-186.364" y1="46.8915" x2="615" y2="46.8915" gradientUnits="userSpaceOnUse">
<stop stop-color="#BDA05E"/>
<stop offset="0.5" stop-color="#E4C959"/>
<stop offset="1" stop-color="#A37D28"/>
</linearGradient>
</defs>
</svg>
