<svg width="252" height="48" viewBox="0 0 252 48" fill="none" xmlns="http://www.w3.org/2000/svg">
<path d="M0.257263 23V1.17596H1.47326L11.0733 16.92H10.1453L19.7453 1.17596H20.9613V23H19.2653V4.08796L19.6813 4.18396L11.2333 18.04H10.0173L1.56926 4.18396L1.95326 4.08796V23H0.257263Z" fill="url(#paint0_linear_2604_58)"/>
<path d="M26.9135 23V1.17596H28.6095V23H26.9135Z" fill="url(#paint1_linear_2604_58)"/>
<path d="M33.1298 21.912L46.3138 2.23196H48.2978L35.1138 21.912H33.1298ZM33.1298 23V21.912L34.5378 21.464H48.0738V23H33.1298ZM33.6738 2.71196V1.17596H48.2978V2.23196L46.8578 2.71196H33.6738Z" fill="url(#paint2_linear_2604_58)"/>
<path d="M50.3768 23L59.2728 1.17596H60.6168L69.4808 23H67.6248L59.5928 2.90396H60.2648L52.1688 23H50.3768ZM54.2488 16.568V15.064H65.6088V16.568H54.2488Z" fill="url(#paint3_linear_2604_58)"/>
<path d="M74.5938 12.984V11.544H81.3458C82.9458 11.544 84.1724 11.1386 85.0258 10.328C85.8791 9.51729 86.3058 8.43996 86.3058 7.09596C86.3058 5.77329 85.8791 4.70662 85.0258 3.89596C84.1938 3.08529 82.9671 2.67996 81.3458 2.67996H74.5938V1.17596H81.2818C82.6898 1.17596 83.8951 1.43196 84.8978 1.94396C85.9004 2.43462 86.6684 3.12796 87.2018 4.02396C87.7351 4.89862 88.0018 5.92262 88.0018 7.09596C88.0018 8.26929 87.7351 9.30396 87.2018 10.2C86.6684 11.0746 85.9004 11.7573 84.8978 12.248C83.8951 12.7386 82.6898 12.984 81.2818 12.984H74.5938ZM73.5698 23V1.17596H75.2658V23H73.5698ZM87.3938 23L78.9458 12.6L80.6418 12.152L89.6018 23H87.3938Z" fill="url(#paint4_linear_2604_58)"/>
<path d="M102.031 13.976V12.472H108.943C109.946 12.472 110.831 12.28 111.599 11.896C112.367 11.4906 112.975 10.9253 113.423 10.2C113.871 9.45329 114.095 8.57862 114.095 7.57596C114.095 6.57329 113.871 5.70929 113.423 4.98396C112.975 4.23729 112.367 3.67196 111.599 3.28796C110.831 2.88262 109.946 2.67996 108.943 2.67996H102.031V1.17596H109.135C110.415 1.17596 111.546 1.44262 112.527 1.97596C113.53 2.48796 114.319 3.22396 114.895 4.18396C115.493 5.14396 115.791 6.27462 115.791 7.57596C115.791 8.87729 115.493 10.008 114.895 10.968C114.319 11.9066 113.53 12.6426 112.527 13.176C111.546 13.7093 110.415 13.976 109.135 13.976H102.031ZM101.007 23V1.17596H102.703V23H101.007Z" fill="url(#paint5_linear_2604_58)"/>
<path d="M116.689 23L125.585 1.17596H126.929L135.793 23H133.937L125.905 2.90396H126.577L118.481 23H116.689ZM120.561 16.568V15.064H131.921V16.568H120.561Z" fill="url(#paint6_linear_2604_58)"/>
<path d="M140.906 12.984V11.544H147.658C149.258 11.544 150.485 11.1386 151.338 10.328C152.192 9.51729 152.618 8.43996 152.618 7.09596C152.618 5.77329 152.192 4.70662 151.338 3.89596C150.506 3.08529 149.28 2.67996 147.658 2.67996H140.906V1.17596H147.594C149.002 1.17596 150.208 1.43196 151.21 1.94396C152.213 2.43462 152.981 3.12796 153.514 4.02396C154.048 4.89862 154.314 5.92262 154.314 7.09596C154.314 8.26929 154.048 9.30396 153.514 10.2C152.981 11.0746 152.213 11.7573 151.21 12.248C150.208 12.7386 149.002 12.984 147.594 12.984H140.906ZM139.882 23V1.17596H141.578V23H139.882ZM153.706 23L145.258 12.6L146.954 12.152L155.914 23H153.706Z" fill="url(#paint7_linear_2604_58)"/>
<path d="M164.751 23V1.78396H166.415V23H164.751ZM156.751 2.71196V1.17596H174.415V2.71196H156.751Z" fill="url(#paint8_linear_2604_58)"/>
<path d="M178.757 23V1.17596H179.973L180.453 3.22396V23H178.757ZM193.861 23L179.717 3.41596L179.973 1.17596L194.149 20.728L193.861 23ZM193.861 23L193.381 21.016V1.17596H195.077V23H193.861Z" fill="url(#paint9_linear_2604_58)"/>
<path d="M201.039 23V1.17596H202.735V23H201.039ZM202.127 23V21.464H215.247V23H202.127ZM202.127 12.536V11.064H214.255V12.536H202.127ZM202.127 2.71196V1.17596H215.087V2.71196H202.127Z" fill="url(#paint10_linear_2604_58)"/>
<path d="M220.906 12.984V11.544H227.658C229.258 11.544 230.485 11.1386 231.338 10.328C232.192 9.51729 232.618 8.43996 232.618 7.09596C232.618 5.77329 232.192 4.70662 231.338 3.89596C230.506 3.08529 229.28 2.67996 227.658 2.67996H220.906V1.17596H227.594C229.002 1.17596 230.208 1.43196 231.21 1.94396C232.213 2.43462 232.981 3.12796 233.514 4.02396C234.048 4.89862 234.314 5.92262 234.314 7.09596C234.314 8.26929 234.048 9.30396 233.514 10.2C232.981 11.0746 232.213 11.7573 231.21 12.248C230.208 12.7386 229.002 12.984 227.594 12.984H220.906ZM219.882 23V1.17596H221.578V23H219.882ZM233.706 23L225.258 12.6L226.954 12.152L235.914 23H233.706Z" fill="url(#paint11_linear_2604_58)"/>
<path d="M245.055 23.32C243.349 23.32 241.877 23 240.639 22.36C239.402 21.6986 238.335 20.792 237.439 19.64L238.623 18.488C239.455 19.6186 240.394 20.4506 241.439 20.984C242.506 21.496 243.733 21.752 245.119 21.752C246.613 21.752 247.829 21.4 248.767 20.696C249.706 19.992 250.175 19.0106 250.175 17.752C250.175 16.792 249.973 16.0133 249.567 15.416C249.162 14.8186 248.618 14.328 247.935 13.944C247.274 13.56 246.538 13.2186 245.727 12.92C244.938 12.6213 244.138 12.3226 243.327 12.024C242.538 11.704 241.813 11.32 241.151 10.872C240.49 10.4026 239.946 9.80529 239.519 9.07996C239.114 8.35462 238.911 7.43729 238.911 6.32796C238.911 5.21862 239.178 4.25862 239.711 3.44796C240.266 2.61596 241.013 1.97596 241.951 1.52796C242.911 1.07996 244.01 0.855957 245.247 0.855957C246.655 0.855957 247.914 1.13329 249.023 1.68796C250.133 2.22129 251.061 2.97862 251.807 3.95996L250.623 5.11196C249.919 4.23729 249.13 3.57596 248.255 3.12796C247.402 2.65862 246.389 2.42396 245.215 2.42396C243.85 2.42396 242.741 2.76529 241.887 3.44796C241.055 4.10929 240.639 5.03729 240.639 6.23196C240.639 7.12796 240.842 7.85329 241.247 8.40796C241.653 8.96262 242.186 9.43196 242.847 9.81596C243.53 10.1786 244.266 10.4986 245.055 10.776C245.866 11.0533 246.666 11.352 247.455 11.672C248.245 11.992 248.97 12.3973 249.631 12.888C250.314 13.3573 250.858 13.9653 251.263 14.712C251.669 15.4586 251.871 16.408 251.871 17.56C251.871 19.416 251.253 20.8453 250.015 21.848C248.799 22.8293 247.146 23.32 245.055 23.32Z" fill="url(#paint12_linear_2604_58)"/>
<path d="M2.24751 42.584V41.544H5.49551C5.94351 41.544 6.34351 41.4533 6.69551 41.272C7.05818 41.0906 7.34085 40.8346 7.54352 40.504C7.75685 40.1626 7.86351 39.7573 7.86351 39.288C7.86351 38.8186 7.75685 38.4186 7.54352 38.088C7.34085 37.7466 7.05818 37.4853 6.69551 37.304C6.34351 37.112 5.94351 37.016 5.49551 37.016H2.24751V35.992H5.57551C6.23685 35.992 6.82885 36.1306 7.35151 36.408C7.87418 36.6746 8.28485 37.0533 8.58352 37.544C8.89285 38.0346 9.04751 38.616 9.04751 39.288C9.04751 39.9493 8.89285 40.5306 8.58352 41.032C8.28485 41.5226 7.87418 41.9066 7.35151 42.184C6.82885 42.4506 6.23685 42.584 5.57551 42.584H2.24751ZM1.49551 47V35.992H2.66351V47H1.49551Z" fill="#2B2B2B"/>
<path d="M20.6413 42.072V41.08H23.8413C24.5666 41.08 25.1213 40.8986 25.5053 40.536C25.8893 40.1626 26.0813 39.6666 26.0813 39.048C26.0813 38.4506 25.8893 37.9653 25.5053 37.592C25.1213 37.208 24.5666 37.016 23.8413 37.016H20.6413V35.992H23.8413C24.5559 35.992 25.1693 36.1253 25.6813 36.392C26.1933 36.648 26.5826 37.0053 26.8493 37.464C27.1266 37.9226 27.2653 38.4453 27.2653 39.032C27.2653 39.64 27.1266 40.1733 26.8493 40.632C26.5826 41.0906 26.1933 41.448 25.6813 41.704C25.1693 41.9493 24.5559 42.072 23.8413 42.072H20.6413ZM19.8893 47V35.992H21.0573V47H19.8893ZM26.5453 47L22.4173 41.912L23.5533 41.544L28.0493 47H26.5453Z" fill="#2B2B2B"/>
<path d="M38.5955 47V35.992H39.7635V47H38.5955Z" fill="#2B2B2B"/>
<path d="M54.9479 47L50.5639 35.992H51.8439L55.6359 45.704H55.1719L58.9959 35.992H60.2439L55.8279 47H54.9479Z" fill="#2B2B2B"/>
<path d="M68.692 47L73.204 35.992H74.084L78.548 47H77.284L73.396 37.272H73.86L69.94 47H68.692ZM70.756 44.136V43.096H76.516V44.136H70.756Z" fill="#2B2B2B"/>
<path d="M90.7078 47V36.296H91.8918V47H90.7078ZM86.8358 37.064V35.992H95.7638V37.064H86.8358Z" fill="#2B2B2B"/>
<path d="M106.561 47V35.992H107.729V47H106.561ZM107.329 47V45.928H113.809V47H107.329ZM107.329 41.88V40.84H113.297V41.88H107.329ZM107.329 37.064V35.992H113.713V37.064H107.329Z" fill="#2B2B2B"/>
<path d="M142.012 47.16C141.223 47.16 140.487 47.016 139.805 46.728C139.133 46.44 138.546 46.0346 138.044 45.512C137.543 44.9893 137.154 44.3866 136.876 43.704C136.61 43.0106 136.477 42.2693 136.477 41.48C136.477 40.6906 136.61 39.9546 136.876 39.272C137.154 38.5786 137.538 37.976 138.029 37.464C138.53 36.952 139.117 36.552 139.788 36.264C140.46 35.976 141.186 35.832 141.965 35.832C142.807 35.832 143.559 35.9813 144.221 36.28C144.893 36.5786 145.479 36.9893 145.98 37.512L145.18 38.312C144.796 37.8853 144.333 37.5546 143.788 37.32C143.244 37.0746 142.637 36.952 141.965 36.952C141.346 36.952 140.775 37.064 140.253 37.288C139.741 37.512 139.287 37.832 138.893 38.248C138.508 38.6533 138.21 39.1333 137.997 39.688C137.794 40.232 137.693 40.8293 137.693 41.48C137.693 42.1306 137.799 42.7333 138.012 43.288C138.226 43.8426 138.525 44.328 138.909 44.744C139.293 45.1493 139.746 45.464 140.268 45.688C140.791 45.912 141.362 46.024 141.98 46.024C142.684 46.024 143.309 45.9013 143.853 45.656C144.407 45.4106 144.876 45.0746 145.26 44.648L146.061 45.464C145.57 45.9866 144.983 46.4026 144.301 46.712C143.618 47.0106 142.855 47.16 142.012 47.16Z" fill="#2B2B2B"/>
<path d="M155.817 47L160.329 35.992H161.209L165.673 47H164.409L160.521 37.272H160.985L157.065 47H155.817ZM157.881 44.136V43.096H163.641V44.136H157.881Z" fill="#2B2B2B"/>
<path d="M177.107 42.584V41.544H180.355C180.803 41.544 181.203 41.4533 181.555 41.272C181.918 41.0906 182.2 40.8346 182.403 40.504C182.616 40.1626 182.723 39.7573 182.723 39.288C182.723 38.8186 182.616 38.4186 182.403 38.088C182.2 37.7466 181.918 37.4853 181.555 37.304C181.203 37.112 180.803 37.016 180.355 37.016H177.107V35.992H180.435C181.096 35.992 181.688 36.1306 182.211 36.408C182.734 36.6746 183.144 37.0533 183.443 37.544C183.752 38.0346 183.907 38.616 183.907 39.288C183.907 39.9493 183.752 40.5306 183.443 41.032C183.144 41.5226 182.734 41.9066 182.211 42.184C181.688 42.4506 181.096 42.584 180.435 42.584H177.107ZM176.355 47V35.992H177.523V47H176.355Z" fill="#2B2B2B"/>
<path d="M194.749 47V35.992H195.917V47H194.749Z" fill="#2B2B2B"/>
<path d="M210.589 47V36.296H211.773V47H210.589ZM206.717 37.064V35.992H215.645V37.064H206.717Z" fill="#2B2B2B"/>
<path d="M223.923 47L228.435 35.992H229.315L233.779 47H232.515L228.627 37.272H229.091L225.171 47H223.923ZM225.987 44.136V43.096H231.747V44.136H225.987Z" fill="#2B2B2B"/>
<path d="M244.461 47V35.992H245.629V47H244.461ZM245.229 47V45.928H251.293V47H245.229Z" fill="#2B2B2B"/>
<defs>
<linearGradient id="paint0_linear_2604_58" x1="0.257261" y1="24.7548" x2="251.871" y2="24.7548" gradientUnits="userSpaceOnUse">
<stop stop-color="#BDA05E"/>
<stop offset="0.5" stop-color="#E4C959"/>
<stop offset="1" stop-color="#A37D28"/>
</linearGradient>
<linearGradient id="paint1_linear_2604_58" x1="0.257261" y1="24.7548" x2="251.871" y2="24.7548" gradientUnits="userSpaceOnUse">
<stop stop-color="#BDA05E"/>
<stop offset="0.5" stop-color="#E4C959"/>
<stop offset="1" stop-color="#A37D28"/>
</linearGradient>
<linearGradient id="paint2_linear_2604_58" x1="0.257261" y1="24.7548" x2="251.871" y2="24.7548" gradientUnits="userSpaceOnUse">
<stop stop-color="#BDA05E"/>
<stop offset="0.5" stop-color="#E4C959"/>
<stop offset="1" stop-color="#A37D28"/>
</linearGradient>
<linearGradient id="paint3_linear_2604_58" x1="0.257261" y1="24.7548" x2="251.871" y2="24.7548" gradientUnits="userSpaceOnUse">
<stop stop-color="#BDA05E"/>
<stop offset="0.5" stop-color="#E4C959"/>
<stop offset="1" stop-color="#A37D28"/>
</linearGradient>
<linearGradient id="paint4_linear_2604_58" x1="0.257261" y1="24.7548" x2="251.871" y2="24.7548" gradientUnits="userSpaceOnUse">
<stop stop-color="#BDA05E"/>
<stop offset="0.5" stop-color="#E4C959"/>
<stop offset="1" stop-color="#A37D28"/>
</linearGradient>
<linearGradient id="paint5_linear_2604_58" x1="0.257261" y1="24.7548" x2="251.871" y2="24.7548" gradientUnits="userSpaceOnUse">
<stop stop-color="#BDA05E"/>
<stop offset="0.5" stop-color="#E4C959"/>
<stop offset="1" stop-color="#A37D28"/>
</linearGradient>
<linearGradient id="paint6_linear_2604_58" x1="0.257261" y1="24.7548" x2="251.871" y2="24.7548" gradientUnits="userSpaceOnUse">
<stop stop-color="#BDA05E"/>
<stop offset="0.5" stop-color="#E4C959"/>
<stop offset="1" stop-color="#A37D28"/>
</linearGradient>
<linearGradient id="paint7_linear_2604_58" x1="0.257261" y1="24.7548" x2="251.871" y2="24.7548" gradientUnits="userSpaceOnUse">
<stop stop-color="#BDA05E"/>
<stop offset="0.5" stop-color="#E4C959"/>
<stop offset="1" stop-color="#A37D28"/>
</linearGradient>
<linearGradient id="paint8_linear_2604_58" x1="0.257261" y1="24.7548" x2="251.871" y2="24.7548" gradientUnits="userSpaceOnUse">
<stop stop-color="#BDA05E"/>
<stop offset="0.5" stop-color="#E4C959"/>
<stop offset="1" stop-color="#A37D28"/>
</linearGradient>
<linearGradient id="paint9_linear_2604_58" x1="0.257261" y1="24.7548" x2="251.871" y2="24.7548" gradientUnits="userSpaceOnUse">
<stop stop-color="#BDA05E"/>
<stop offset="0.5" stop-color="#E4C959"/>
<stop offset="1" stop-color="#A37D28"/>
</linearGradient>
<linearGradient id="paint10_linear_2604_58" x1="0.257261" y1="24.7548" x2="251.871" y2="24.7548" gradientUnits="userSpaceOnUse">
<stop stop-color="#BDA05E"/>
<stop offset="0.5" stop-color="#E4C959"/>
<stop offset="1" stop-color="#A37D28"/>
</linearGradient>
<linearGradient id="paint11_linear_2604_58" x1="0.257261" y1="24.7548" x2="251.871" y2="24.7548" gradientUnits="userSpaceOnUse">
<stop stop-color="#BDA05E"/>
<stop offset="0.5" stop-color="#E4C959"/>
<stop offset="1" stop-color="#A37D28"/>
</linearGradient>
<linearGradient id="paint12_linear_2604_58" x1="0.257261" y1="24.7548" x2="251.871" y2="24.7548" gradientUnits="userSpaceOnUse">
<stop stop-color="#BDA05E"/>
<stop offset="0.5" stop-color="#E4C959"/>
<stop offset="1" stop-color="#A37D28"/>
</linearGradient>
</defs>
</svg>
